<?xml version="1.0" encoding="utf-8"?>
<!-- Generator: Adobe Illustrator 24.0.1, SVG Export Plug-In . SVG Version: 6.00 Build 0)  -->
<svg version="1.1" id="图层_1" xmlns="http://www.w3.org/2000/svg" xmlns:xlink="http://www.w3.org/1999/xlink" x="0px" y="0px"
	 viewBox="0 0 1000 1000" style="enable-background:new 0 0 1000 1000;" xml:space="preserve">
<g>
	<path d="M321.95,518.75v10.43h-34.9v24.11h-12.36v-30.52c0.06-8.77,0.88-14.53,2.46-17.27c1.99-3.86,4.87-6.61,8.64-8.24
		c3.77-1.64,9.08-2.46,15.92-2.46h20.26v10.43h-18.68c-5.79,0.12-9.5,0.59-11.14,1.4c-3.27,1.35-4.97,4.33-5.09,8.94v3.16H321.95z"
		/>
	<path d="M342.65,553.3H330.9v-58.49h11.75V553.3z"/>
	<path d="M373.95,509.98c7.89,0,13.71,2.28,17.45,6.84c3.45,4.15,5.17,9.38,5.17,15.7c0,6.66-2.16,11.98-6.49,15.96
		c-3.98,3.62-9.41,5.44-16.31,5.44c-7.13,0-12.71-2.05-16.75-6.14c-3.74-3.68-5.61-9.06-5.61-16.13c0-5.96,1.78-10.93,5.35-14.91
		C360.74,512.29,366.47,510.04,373.95,509.98z M374.04,518.92c-7.07,0-10.61,4.38-10.61,13.15c0,3.57,0.58,6.28,1.75,8.15
		c1.93,3.16,4.91,4.73,8.94,4.73c6.96,0,10.43-4.35,10.43-13.07C384.56,523.37,381.05,519.04,374.04,518.92z"/>
	<path d="M429.72,544.18v-33.58h11.75v33.58h12.63v-33.58h11.66v42.7h-43.14c-3.92,0-6.9-0.29-8.94-0.88
		c-2.05-0.58-3.74-1.61-5.09-3.07c-2.57-2.81-3.86-6.66-3.86-11.58v-27.18h11.66v25.34c0,2.05,0.1,3.48,0.31,4.3
		c0.2,0.82,0.6,1.55,1.18,2.19c1.23,1.17,3.07,1.75,5.52,1.75H429.72z"/>
	<path d="M495.83,539.97l11.93-29.38h12.45l-18.41,42.7h-12.63l-17.01-42.7h12.8L495.83,539.97z"/>
	<path d="M546.25,509.98c7.89,0,13.71,2.28,17.45,6.84c3.45,4.15,5.17,9.38,5.17,15.7c0,6.66-2.16,11.98-6.49,15.96
		c-3.98,3.62-9.41,5.44-16.31,5.44c-7.13,0-12.72-2.05-16.75-6.14c-3.74-3.68-5.61-9.06-5.61-16.13c0-5.96,1.78-10.93,5.35-14.91
		C533.04,512.29,538.77,510.04,546.25,509.98z M546.34,518.92c-7.07,0-10.61,4.38-10.61,13.15c0,3.57,0.58,6.28,1.75,8.15
		c1.93,3.16,4.91,4.73,8.94,4.73c6.96,0,10.43-4.35,10.43-13.07C556.86,523.37,553.36,519.04,546.34,518.92z"/>
	<path d="M577.56,506.21v-11.4h11.75v11.4H577.56z M577.56,510.59h11.75v42.7h-11.75V510.59z"/>
	<path d="M636.57,510.59v9.12h-14.03c-4.73,0-8.01,1.05-9.82,3.16c-1.75,1.99-2.63,5.03-2.63,9.12c0,4.56,1.43,7.89,4.3,10
		c1.17,0.82,2.44,1.39,3.82,1.71c1.37,0.32,3.29,0.48,5.74,0.48h12.63v9.12h-16.05c-4.33,0-7.75-0.44-10.26-1.32
		c-2.51-0.88-4.73-2.4-6.66-4.56c-3.68-4.09-5.52-9.29-5.52-15.61c0-7.6,2.19-13.27,6.58-17.01c1.75-1.52,3.86-2.6,6.31-3.24
		c2.46-0.64,5.64-0.97,9.56-0.97H636.57z"/>
	<path d="M680.41,527.34v9.12h-24.73c0.23,2.81,1.14,4.79,2.72,5.96c1.58,1.17,4.15,1.75,7.72,1.75h14.29v9.12H664.8
		c-3.39,0-6.15-0.31-8.29-0.92c-2.13-0.61-4.14-1.62-6.01-3.03c-5.2-4.03-7.8-10.03-7.8-17.98c0-5.14,1.37-9.64,4.12-13.5
		c1.87-2.63,4.12-4.5,6.75-5.61c2.63-1.11,6.08-1.67,10.35-1.67h16.49v9.12H664.8c-3.22,0-5.47,0.54-6.75,1.62
		c-1.29,1.08-2.08,3.08-2.37,6.01H680.41z"/>
</g>
<g>
	<path d="M163.13,485.15L163.13,485.15c-3.59,0-6.5,2.91-6.5,6.5v14.26c0,1.34,0.41,2.64,1.18,3.74h0
		c3.65,5.19,11.82,2.61,11.82-3.74v-14.26C169.63,488.06,166.72,485.15,163.13,485.15z"/>
</g>
<g>
	<path d="M181.59,503.12L181.59,503.12c-3.59,0-6.5,2.91-6.5,6.5v22.54c0,1.34,0.41,2.64,1.18,3.74h0
		c3.65,5.19,11.82,2.61,11.82-3.74v-22.54C188.09,506.03,185.18,503.12,181.59,503.12z"/>
</g>
<g>
	<path d="M236.97,485.15L236.97,485.15c-3.59,0-6.5,2.91-6.5,6.5v14.26c0,6.35,8.17,8.93,11.82,3.74l0,0
		c0.77-1.09,1.18-2.4,1.18-3.74v-14.26C243.47,488.06,240.56,485.15,236.97,485.15z"/>
</g>
<g>
	<path d="M218.51,503.12L218.51,503.12c-3.59,0-6.5,2.91-6.5,6.5v22.54c0,6.35,8.17,8.93,11.82,3.74l0,0
		c0.77-1.09,1.18-2.4,1.18-3.74v-22.54C225.01,506.03,222.1,503.12,218.51,503.12z"/>
</g>
<g>
	<path d="M206.55,558.41v-30.82c0-3.59-2.91-6.5-6.5-6.5h0c-3.59,0-6.5,2.91-6.5,6.5v30.82c0,1.34,0.41,2.64,1.18,3.74v0
		c2.59,3.68,8.05,3.68,10.63,0v0C206.13,561.06,206.55,559.75,206.55,558.41z"/>
</g>
<g>
	<g>
		<path d="M200.17,507.65L200.17,507.65c-3.59,0-6.5-2.91-6.5-6.5v-26c0-3.59,2.91-6.5,6.5-6.5l0,0c3.59,0,6.5,2.91,6.5,6.5v26
			C206.67,504.74,203.76,507.65,200.17,507.65z"/>
	</g>
</g>
<g>
	<path d="M703.91,512.03h5.1l-5.1-12.37h10.42l6.97,16.87h-5.17l5.17,12.45h-10.42L703.91,512.03z M714.33,554.02h-10.42l6.97-21.52
		h10.42L714.33,554.02z M722.2,502.36l16.87-0.08l-1.12-3h12.52l1.12,3.07h17.7v6.6h-25.57l-6.07,9.22h20.69l-1.35-4.27h9
		l3.67,12.07h-9l-0.45-1.43h-36.74l8.62-15.6h-9.9V502.36z M736.67,527.63l-2.85,26.32h-9l2.85-26.32H736.67z M751.22,553.95h-9
		v-26.32h9V553.95z M770.12,547.95l-2.62,6.15h-4.87c-1.8,0-3.35-0.64-4.65-1.91c-1.3-1.28-1.95-2.84-1.95-4.69v-19.87h9v15.15v1.27
		v2.4c0,0.4,0.15,0.75,0.45,1.05c0.3,0.3,0.65,0.45,1.05,0.45H770.12z"/>
	<path d="M815.61,508.21v3.82h24.77v6.15h-59.76v-6.15h24.74v-3.82h-27.82v-6.22h27.82v-2.4h10.25v2.4h27.77v6.22H815.61z
		 M836.36,520.8h4.01v12.45c0,1.15-0.21,2.21-0.64,3.19s-1.01,1.84-1.76,2.59c-0.75,0.75-1.63,1.34-2.62,1.76
		c-1,0.43-2.05,0.64-3.15,0.64h-42.59v6l-3.27,6.37h-8.8l3.37-6.37V520.8h8.17h0.6h17.7h8.85h15.45H836.36z M789.61,535.13h17.77
		v-7.95h-17.77V535.13z M829.35,535.13c0.65,0,1.2-0.22,1.65-0.68c0.45-0.45,0.68-1,0.68-1.65v-5.62h-15.45v7.95H829.35z"/>
</g>
</svg>
